<svg width="20" height="20" viewBox="0 0 20 20" fill="none" xmlns="http://www.w3.org/2000/svg">
<path d="M2.45284 6.49477H17.536C17.7199 6.49477 17.8952 6.419 18.0213 6.28549C18.1475 6.15198 18.2129 5.97241 18.2026 5.78883L18.1942 5.6156C18.0857 3.86259 16.6205 2.48942 14.8578 2.48942H13.9999V1.82186C13.9999 1.45336 13.7009 1.1543 13.3324 1.1543C12.9639 1.1543 12.6648 1.45336 12.6648 1.82186V2.48942H7.32435V1.82186C7.32435 1.45336 7.02529 1.1543 6.65679 1.1543C6.2883 1.1543 5.98923 1.45336 5.98923 1.82186V2.48942H5.13142C3.36873 2.48942 1.9031 3.86292 1.79463 5.61693L1.78628 5.78916C1.7756 5.97241 1.84135 6.15198 1.96719 6.28583C2.09302 6.41967 2.26926 6.49477 2.45284 6.49477Z" fill="#EFAB23"/>
<path d="M18.307 8.48095C18.2983 8.1188 18.0019 7.83008 17.6398 7.83008H2.34931C1.98716 7.83008 1.6911 8.1188 1.68176 8.48095C1.62201 10.8725 1.6644 13.2557 1.80792 15.5651C1.91206 17.2407 3.25419 18.5825 4.9291 18.6866C6.61001 18.7921 8.30228 18.8448 9.99454 18.8448C11.6865 18.8448 13.3794 18.7921 15.0593 18.6863C16.7349 18.5821 18.0767 17.24 18.1812 15.5648C18.3247 13.2557 18.3671 10.8721 18.307 8.48095ZM13.3323 11.8354C12.7793 11.8354 12.331 11.3872 12.331 10.8341C12.331 10.281 12.7793 9.83276 13.3323 9.83276C13.8854 9.83276 14.3337 10.281 14.3337 10.8341C14.3337 11.3872 13.8854 11.8354 13.3323 11.8354ZM14.3337 14.1719C14.3337 14.725 13.8854 15.1732 13.3323 15.1732C12.7793 15.1732 12.331 14.725 12.331 14.1719C12.331 13.6188 12.7793 13.1706 13.3323 13.1706C13.8854 13.1706 14.3337 13.6188 14.3337 14.1719ZM6.65674 13.1706C7.20982 13.1706 7.65808 13.6188 7.65808 14.1719C7.65808 14.725 7.20982 15.1732 6.65674 15.1732C6.10367 15.1732 5.6554 14.725 5.6554 14.1719C5.6554 13.6188 6.10367 13.1706 6.65674 13.1706ZM5.6554 10.8341C5.6554 10.281 6.10367 9.83276 6.65674 9.83276C7.20982 9.83276 7.65808 10.281 7.65808 10.8341C7.65808 11.3872 7.20982 11.8354 6.65674 11.8354C6.10367 11.8354 5.6554 11.3872 5.6554 10.8341ZM8.9932 14.1719C8.9932 13.6188 9.44147 13.1706 9.99454 13.1706C10.5476 13.1706 10.9959 13.6188 10.9959 14.1719C10.9959 14.725 10.5476 15.1732 9.99454 15.1732C9.44147 15.1732 8.9932 14.725 8.9932 14.1719ZM9.99454 11.8354C9.44147 11.8354 8.9932 11.3872 8.9932 10.8341C8.9932 10.281 9.44147 9.83276 9.99454 9.83276C10.5476 9.83276 10.9959 10.281 10.9959 10.8341C10.9959 11.3872 10.5476 11.8354 9.99454 11.8354Z" fill="#EFAB23"/>
</svg>
