<svg width="24" height="24" viewBox="0 0 24 24" fill="none" xmlns="http://www.w3.org/2000/svg">
<path d="M22.9885 9.03461C23.0532 8.64597 22.87 8.3113 21.7838 7.67867C22.814 6.19317 23.3549 3.42946 22.523 1.76691C22.4605 1.64168 22.3592 1.5402 22.2342 1.47759C20.5705 0.635518 17.8163 1.1861 16.3314 2.21818C15.7 1.1386 15.3659 0.946436 14.978 1.01121C14.7862 1.03928 13.0233 1.35236 12.2302 2.84865C11.9156 2.55284 11.5492 2.31318 11.1527 2.14261C10.7928 1.99146 10.4458 2.14261 9.8467 2.75149C8.82734 1.6935 6.85973 0.838478 5.41365 1.18394C5.27788 1.21633 5.15504 1.2919 5.06668 1.39986C4.11412 2.54421 4.00206 4.6904 4.49342 6.07442C3.67879 6.33999 3.39432 6.58614 3.36846 6.97478C3.35337 7.16479 3.25855 8.93313 4.68523 9.79895C5.20676 10.1163 6.07958 10.5698 7.00196 11.0513C7.83168 11.4831 8.74113 11.9581 9.41783 12.3468L1.18749 20.7674C0.937502 21.0201 0.937502 21.426 1.18749 21.6786L2.31892 22.8122C2.57107 23.0626 2.97623 23.0626 3.22838 22.8122L11.6333 14.5664C12.0212 15.2465 12.4953 16.1555 12.9263 16.9889C13.4069 17.913 13.8617 18.7853 14.1763 19.31C14.9047 20.5127 16.2689 20.6357 16.7969 20.6357H16.9952C17.3831 20.6098 17.6309 20.3248 17.8939 19.5087C19.2753 20.0009 21.4175 19.8887 22.5597 18.9343C22.6674 18.8458 22.7428 18.7227 22.7752 18.5867C23.12 17.1379 22.2666 15.1644 21.2106 14.1453C21.8226 13.5451 21.967 13.1975 21.8161 12.8369C21.6502 12.4504 21.4196 12.0963 21.1351 11.7875C22.6437 10.9994 22.9562 9.22678 22.9885 9.03461Z" fill="black"/>
</svg>
