<svg width="16" height="16" viewBox="0 0 16 16" fill="none" xmlns="http://www.w3.org/2000/svg">
<path d="M15.6211 13.577L11.9426 9.89825C12.5676 8.90323 12.9303 7.72717 12.9303 6.46503C12.9303 2.89429 10.0356 0 6.46503 0C2.89442 0 0 2.89429 0 6.46503C0 10.0359 2.89429 12.9299 6.46503 12.9299C7.83856 12.9299 9.1108 12.5005 10.1577 11.7708L13.7924 15.4058C14.045 15.6581 14.3761 15.7838 14.7068 15.7838C15.0378 15.7838 15.3685 15.6581 15.6215 15.4058C16.1262 14.9006 16.1262 14.0822 15.6211 13.577ZM6.46503 10.8354C4.05162 10.8354 2.09498 8.87885 2.09498 6.4653C2.09498 4.05176 4.05162 2.09511 6.46503 2.09511C8.87858 2.09511 10.8351 4.05176 10.8351 6.4653C10.8351 8.87885 8.87858 10.8354 6.46503 10.8354Z" fill="black"/>
</svg>
